<?xml version="1.0" standalone="no"?>
<!DOCTYPE svg PUBLIC "-//W3C//DTD SVG 20010904//EN"
 "http://www.w3.org/TR/2001/REC-SVG-20010904/DTD/svg10.dtd">
<svg version="1.0" xmlns="http://www.w3.org/2000/svg"
 width="260.000000pt" height="260.000000pt" viewBox="0 0 260.000000 260.000000"
 preserveAspectRatio="xMidYMid meet">
<metadata>
Created by potrace 1.14, written by Peter Selinger 2001-2017
</metadata>
<g transform="translate(0.000000,260.000000) scale(0.100000,-0.100000)"
fill="#000000" stroke="none">
<path d="M1219 2536 c-2 -2 -24 -6 -49 -10 -91 -12 -152 -31 -245 -78 -199
-98 -357 -266 -469 -495 -56 -115 -103 -254 -121 -358 -3 -16 -8 -46 -12 -65
-4 -19 -8 -123 -8 -230 1 -211 15 -309 72 -478 104 -311 313 -560 568 -678
178 -82 404 -94 585 -29 229 81 438 278 563 530 266 536 176 1224 -213 1616
-139 141 -276 220 -450 260 -47 11 -213 22 -221 15z m266 -86 c292 -93 512
-327 633 -672 57 -159 77 -290 77 -488 -1 -200 -40 -394 -115 -562 l-20 -47
-78 0 c-80 -1 -88 -2 -215 -27 -215 -43 -279 -47 -337 -24 -14 6 -31 20 -39
32 -11 18 -10 24 8 48 18 25 19 29 4 41 -13 11 -19 9 -39 -14 -28 -33 -30 -56
-8 -98 15 -29 14 -31 -5 -36 -12 -3 -18 -9 -15 -14 3 -5 14 -4 25 2 29 15 56
4 39 -16 -8 -10 -9 -15 -2 -15 6 0 14 5 17 10 3 6 15 10 27 10 15 0 19 -5 15
-20 -6 -23 1 -26 17 -6 12 16 86 29 86 15 0 -4 -4 -11 -10 -14 -5 -3 -10 -12
-10 -18 0 -7 11 0 23 14 13 14 33 28 46 32 19 5 22 2 18 -14 -7 -25 10 -25 18
1 3 11 12 20 19 20 8 0 28 3 46 6 30 7 32 6 21 -14 -15 -29 -14 -37 4 -22 8 7
15 21 15 30 0 13 11 20 41 25 48 8 56 3 33 -19 -9 -9 -14 -19 -11 -22 7 -7 37
25 37 40 0 8 16 16 37 19 45 8 67 -8 40 -28 -12 -8 -14 -15 -8 -20 6 -3 19 7
29 24 14 26 23 31 56 31 37 0 38 -1 23 -18 -10 -10 -17 -24 -17 -30 0 -16 -11
-21 -96 -37 -77 -15 -146 -44 -259 -110 -104 -60 -144 -68 -390 -69 -190 -2
-227 -5 -275 -21 -67 -24 -76 -52 -16 -47 35 3 38 1 33 -17 -3 -12 -1 -24 4
-27 5 -3 10 2 10 10 3 33 4 37 19 46 22 14 53 12 47 -3 -21 -52 -22 -53 -4
-38 9 7 17 22 17 32 0 11 4 19 9 19 5 0 16 3 25 6 11 4 16 0 16 -14 0 -12 -5
-24 -10 -27 -13 -8 -13 -25 -1 -25 5 0 15 15 22 34 11 30 16 34 43 32 27 -3
31 -6 28 -30 -2 -18 1 -25 7 -21 6 3 11 15 11 26 0 10 3 19 8 19 4 1 63 2 132
4 86 2 139 8 170 20 40 15 46 15 56 1 6 -8 17 -15 23 -15 8 0 6 6 -5 17 -16
16 -15 18 15 32 28 13 32 13 50 -3 11 -10 26 -16 33 -14 8 3 5 9 -10 17 -30
16 -28 25 10 49 32 20 32 20 46 1 7 -10 20 -19 28 -19 10 0 8 6 -8 22 l-22 22
40 17 39 18 14 -27 c9 -16 16 -22 19 -14 2 7 -1 19 -7 26 -9 11 -5 16 20 25
77 27 66 -1 -46 -117 -103 -109 -93 -105 -284 -104 -170 1 -269 -11 -386 -46
-47 -14 -60 -23 -60 -38 0 -16 6 -18 33 -16 18 2 39 -1 45 -6 18 -14 67 -24
67 -13 0 4 -14 11 -31 15 -36 7 -31 22 11 31 22 5 37 1 56 -14 34 -27 45 -19
13 8 l-24 20 31 1 c23 0 36 -7 49 -26 9 -14 19 -23 23 -20 3 4 0 12 -6 18 -16
16 -15 35 3 42 10 4 20 -3 27 -19 6 -14 18 -25 26 -25 12 0 12 4 -3 20 -10 11
-14 21 -9 21 62 8 63 8 73 -19 l9 -27 1 28 c1 27 2 27 66 26 36 -1 68 -5 71
-10 4 -7 -54 -37 -131 -67 -121 -47 -323 -52 -450 -12 -86 27 -198 86 -273
144 -60 45 -142 129 -142 144 0 9 92 -2 110 -13 6 -3 7 -17 4 -31 -8 -31 4
-31 16 0 7 18 14 22 34 19 21 -4 26 -11 27 -37 l1 -31 10 28 c7 20 16 27 37
27 38 0 44 -10 24 -33 -14 -16 -15 -19 -3 -15 8 2 19 14 25 26 6 13 19 22 33
22 21 0 41 24 30 36 -3 2 -40 6 -84 8 -43 2 -101 12 -129 22 -27 9 -79 17
-114 18 l-64 1 -33 49 c-18 28 -32 51 -31 52 5 5 92 -19 102 -28 6 -6 5 -12
-5 -18 -13 -8 -12 -10 3 -10 9 0 17 5 17 10 0 11 43 14 53 3 4 -3 2 -12 -4
-20 -15 -18 0 -17 21 2 19 17 64 9 56 -11 -3 -8 -1 -14 5 -14 5 0 12 6 15 13
3 9 16 12 35 9 24 -3 28 -8 24 -23 -4 -11 -2 -19 4 -19 6 0 11 6 11 14 0 20
16 29 41 21 16 -5 19 -12 15 -31 -9 -33 3 -30 15 4 8 23 16 28 46 30 31 3 35
0 30 -18 -3 -11 -1 -22 3 -25 5 -3 11 8 15 25 4 16 10 30 13 30 4 0 18 3 31 7
20 5 23 3 18 -11 -5 -12 -3 -16 5 -13 7 2 13 11 13 20 0 15 31 46 48 47 4 0 7
-9 7 -21 0 -12 4 -17 11 -14 5 4 9 17 7 28 -3 24 8 47 23 47 5 0 9 -7 9 -15 0
-8 4 -15 10 -15 6 0 6 9 1 23 -12 31 3 57 21 39 19 -19 33 -14 15 6 -16 17
-14 22 20 71 27 38 42 51 55 48 20 -6 25 8 6 17 -7 3 -1 4 15 2 29 -4 37 8 11
18 -8 3 -12 10 -9 16 4 7 13 7 26 0 10 -6 19 -8 19 -5 0 13 -6 20 -15 17 -5
-2 -2 5 8 16 43 47 0 58 -54 13 -19 -16 -66 -73 -103 -125 -38 -53 -85 -110
-105 -127 -88 -73 -244 -77 -495 -14 l-148 38 -25 56 c-85 190 -125 381 -125
600 0 368 126 696 355 923 116 116 227 181 382 223 108 30 277 28 380 -5z"/>
<path d="M1160 2373 c-10 -12 -11 -18 -2 -21 15 -5 16 -32 2 -32 -13 0 -32
-45 -35 -85 -1 -16 -7 -43 -14 -58 -6 -16 -12 -48 -12 -70 -1 -23 -5 -57 -11
-74 l-10 -33 -184 0 c-101 0 -184 -3 -185 -7 -1 -11 -6 -41 -15 -83 -10 -47
-11 -53 -12 -71 -2 -12 -16 -15 -73 -14 -69 1 -91 -6 -67 -21 20 -13 147 -12
157 0 4 6 14 46 22 89 l13 77 182 0 182 0 12 31 c7 16 14 54 15 82 2 29 3 55
4 60 1 4 26 7 56 7 45 0 55 -3 56 -17 5 -123 7 -113 -28 -113 -23 0 -33 -5
-33 -15 0 -10 11 -15 35 -15 30 0 35 -3 35 -22 0 -38 12 -69 24 -65 10 4 11
37 2 100 -3 16 1 27 7 28 7 1 114 3 239 5 l227 3 12 -57 c6 -31 17 -77 23
-102 l12 -45 76 -3 c47 -1 79 2 83 9 11 18 -3 23 -68 25 -34 1 -65 2 -68 3 -4
0 -9 18 -13 39 -12 76 -17 98 -27 128 l-10 31 -247 -1 -247 -1 -2 42 c-1 23
-8 54 -16 70 -8 15 -17 48 -20 71 -3 24 -15 54 -26 66 -16 17 -18 25 -9 34 8
8 8 15 -2 27 -16 19 -21 18 -40 -2z m35 -144 c10 -31 -12 -49 -24 -18 -5 13
-7 27 -4 32 8 14 22 7 28 -14z"/>
<path d="M1464 1985 c-3 -8 -3 -19 1 -25 11 -18 25 -11 25 15 0 27 -17 34 -26
10z"/>
<path d="M1570 1975 c0 -25 14 -34 24 -16 8 12 -3 41 -15 41 -5 0 -9 -11 -9
-25z"/>
<path d="M797 1933 c-7 -15 -2 -36 11 -40 7 -3 12 5 12 21 0 24 -14 36 -23 19z"/>
<path d="M900 1916 c0 -17 5 -26 16 -26 10 0 14 7 12 22 -5 32 -28 35 -28 4z"/>
<path d="M1688 1909 c-6 -18 2 -49 12 -49 15 0 19 28 6 46 -11 14 -14 15 -18
3z"/>
<path d="M1194 1766 c-8 -21 3 -49 16 -41 5 3 10 15 10 25 0 25 -18 36 -26 16z"/>
<path d="M853 1745 c-8 -21 -1 -26 42 -31 43 -4 78 -24 118 -68 126 -138 170
-168 234 -160 49 6 77 23 167 98 43 36 95 71 114 77 34 11 133 8 195 -7 26 -6
28 -4 25 17 -3 24 -31 35 -105 41 -34 2 -43 12 -20 21 6 3 2 6 -11 6 -12 1
-25 -5 -28 -12 -2 -7 -14 -13 -25 -14 -17 -2 -18 1 -9 13 8 9 9 14 2 14 -6 0
-17 -8 -24 -18 -7 -9 -26 -23 -42 -30 -26 -12 -28 -11 -16 2 10 13 10 16 -4
16 -9 0 -16 -8 -16 -19 0 -28 -21 -37 -37 -16 -12 18 -13 18 -13 -2 0 -12 6
-23 12 -25 8 -3 4 -9 -10 -17 -27 -14 -42 -7 -42 20 0 11 -4 18 -9 15 -12 -8
-9 -30 7 -48 9 -12 8 -18 -7 -32 -20 -18 -31 -11 -45 28 -3 10 -9 16 -12 13
-3 -3 1 -20 9 -37 15 -30 15 -31 -9 -42 -28 -13 -44 0 -44 34 0 9 -5 20 -11
24 -12 7 -9 -23 6 -58 6 -15 2 -18 -19 -18 -29 0 -46 25 -46 67 0 20 -3 24 -9
14 -5 -8 -7 -26 -5 -40 l5 -26 -28 27 c-21 21 -27 36 -25 64 2 22 -1 33 -8 29
-5 -3 -10 -16 -10 -27 l0 -22 -21 23 c-14 15 -19 31 -16 47 2 13 0 27 -4 30
-5 3 -9 -2 -9 -10 0 -9 -4 -16 -9 -16 -17 0 -32 30 -26 52 6 21 5 22 -8 5 -14
-17 -18 -17 -52 -3 -48 20 -94 21 -102 1z"/>
<path d="M1817 1687 c-3 -8 -1 -20 4 -28 8 -12 10 -12 18 0 10 15 4 41 -9 41
-4 0 -10 -6 -13 -13z"/>
<path d="M1911 1681 c-18 -11 -5 -31 20 -31 36 0 59 -19 59 -48 0 -31 -28 -67
-60 -77 -28 -9 -33 -3 -21 27 5 15 6 30 0 39 -6 10 -9 7 -9 -13 0 -36 -32 -68
-67 -68 l-27 0 29 30 c41 43 25 48 -18 5 -25 -25 -44 -35 -67 -35 l-31 0 20
26 c23 29 28 64 10 64 -6 0 -9 -7 -5 -15 3 -8 -5 -27 -18 -42 -17 -20 -33 -27
-67 -28 -24 -2 -51 -4 -59 -6 -10 -3 -14 3 -13 16 1 10 -3 27 -8 37 -10 19
-39 25 -39 8 0 -5 7 -10 15 -10 18 0 20 -31 3 -48 -18 -18 -46 -14 -53 7 -6
21 -31 34 -46 25 -17 -10 -9 -25 11 -19 16 5 20 2 20 -14 0 -28 -79 -51 -92
-27 -5 9 -14 16 -20 16 -9 0 -9 -3 0 -12 15 -15 15 -29 -3 -52 -13 -17 -15
-17 -30 -2 -9 9 -21 13 -27 10 -5 -3 -1 -12 10 -20 16 -11 21 -30 27 -112 6
-88 5 -103 -13 -139 -24 -46 -75 -94 -132 -123 -44 -22 -48 -31 -25 -50 8 -7
15 -21 15 -31 0 -11 5 -19 10 -19 6 0 8 10 4 24 -7 29 9 42 26 21 7 -8 17 -15
23 -15 7 0 7 4 -1 12 -17 17 -15 35 5 42 10 4 20 1 25 -9 5 -8 13 -15 19 -15
5 0 4 9 -3 19 -17 27 6 55 32 41 24 -13 30 -13 30 0 0 6 -7 10 -16 10 -26 0
-9 25 22 31 24 5 26 7 11 14 -24 10 -2 38 24 30 11 -4 19 -2 19 4 0 6 -9 11
-19 11 -25 0 -17 36 10 43 10 3 19 10 19 16 0 8 -6 9 -19 2 -16 -9 -18 -7 -15
15 1 14 8 32 16 41 11 15 11 16 -5 10 -16 -6 -18 -3 -12 24 5 22 4 29 -4 25
-14 -9 -14 16 0 48 14 29 65 52 135 61 84 10 203 15 208 7 2 -4 6 -20 7 -37 4
-28 2 -30 -29 -28 -26 1 -31 -2 -22 -12 7 -8 26 -12 48 -10 20 2 51 3 67 4 22
1 26 4 16 10 -8 5 -25 7 -38 5 -19 -4 -23 0 -23 20 0 13 -3 31 -6 40 -5 13 8
15 93 15 103 1 124 3 211 23 39 8 52 15 50 27 -4 16 -19 18 -75 8 -18 -3 -33
-4 -33 -2 0 1 7 18 15 38 8 19 12 45 10 58 -9 50 -83 86 -124 60z"/>
<path d="M804 1655 c-4 -8 -3 -26 0 -40 6 -22 3 -25 -23 -25 -32 0 -45 20 -35
53 4 13 2 17 -5 13 -6 -4 -11 -22 -11 -41 0 -29 -3 -32 -21 -28 -25 7 -36 30
-20 46 6 6 11 16 11 22 -1 5 -9 0 -20 -13 -10 -13 -16 -30 -13 -37 6 -18 -1
-19 -28 -4 -20 10 -20 11 -3 30 10 11 12 19 6 19 -7 0 -17 -9 -24 -19 -9 -15
-16 -17 -25 -10 -14 12 -33 4 -33 -15 0 -44 83 -64 257 -61 118 2 128 4 128
21 0 11 -8 20 -20 23 -27 5 -35 21 -28 50 4 17 2 22 -6 17 -6 -4 -11 -20 -11
-37 0 -23 -4 -29 -23 -29 -27 0 -48 30 -40 59 6 24 -5 29 -13 6z"/>
<path d="M1637 1624 c-12 -12 -8 -24 9 -24 17 0 16 -20 -1 -65 -7 -19 -7 -19
10 -3 10 9 18 28 18 43 0 28 -24 60 -36 49z"/>
<path d="M487 1593 c-13 -12 -7 -43 8 -43 9 0 15 9 15 25 0 24 -10 32 -23 18z"/>
<path d="M784 1484 c21 -21 20 -37 -1 -30 -61 18 -119 25 -198 21 -97 -4 -149
-18 -142 -38 4 -12 23 -13 140 -5 37 3 67 2 67 -1 0 -16 -43 -41 -60 -36 -27
8 -70 -5 -70 -22 0 -12 3 -12 21 0 21 15 59 12 59 -4 0 -5 -11 -14 -24 -19
-26 -9 -44 -30 -27 -30 5 0 13 5 16 10 10 16 35 11 35 -6 0 -9 -7 -22 -16 -28
-16 -12 -10 -46 8 -46 5 0 6 5 3 10 -14 23 8 29 26 7 22 -29 58 -41 65 -22 3
7 -6 24 -20 38 -35 35 -33 69 5 101 36 31 65 32 166 9 59 -14 72 -20 67 -33
-4 -8 -9 -27 -11 -42 -4 -20 -10 -26 -25 -23 -12 3 -28 0 -37 -6 -14 -8 -13
-9 4 -7 11 1 35 -2 52 -6 35 -8 73 0 73 14 0 6 -10 6 -25 0 -14 -5 -25 -8 -26
-7 -8 23 -5 46 9 69 13 23 24 28 57 29 22 1 63 2 90 3 100 3 149 -20 170 -80
16 -49 3 -89 -42 -128 -26 -22 -31 -32 -22 -42 6 -8 15 -11 20 -8 5 3 9 -2 9
-10 0 -9 4 -16 10 -16 5 0 7 6 4 14 -8 21 22 45 48 39 18 -5 21 -3 11 7 -16
17 -5 40 15 33 14 -5 15 -3 5 8 -17 17 -16 29 1 29 8 0 18 5 22 12 5 8 2 9 -9
5 -12 -5 -17 -1 -17 13 0 11 6 20 13 20 6 0 4 5 -6 11 -18 10 -18 12 -1 30 17
19 17 20 0 13 -25 -9 -40 16 -19 31 11 9 13 14 5 19 -7 4 -12 2 -12 -3 0 -17
-16 -13 -55 13 -19 13 -53 27 -75 31 -33 6 -40 11 -40 30 0 12 -7 28 -15 35
-17 14 -20 3 -6 -19 14 -22 2 -41 -26 -41 -13 0 -22 4 -19 9 3 5 -3 20 -14 32
-22 27 -27 20 -8 -11 14 -23 8 -32 -26 -35 -16 -2 -23 1 -20 9 6 16 -22 53
-33 42 -4 -5 -2 -11 5 -13 6 -3 12 -13 12 -23 0 -14 -7 -18 -27 -17 -22 2 -29
8 -31 29 -2 15 -10 32 -18 38 -17 15 -18 6 -2 -20 8 -13 9 -23 3 -29 -13 -13
-67 -2 -62 13 6 17 -12 46 -29 46 -14 0 -14 -2 0 -16z"/>
<path d="M1564 1353 c-25 -18 -34 -51 -22 -78 21 -47 85 -46 107 2 10 23 9 30
-7 52 -19 26 -58 38 -78 24z"/>
<path d="M1873 1352 c-6 -4 -16 -19 -22 -34 -8 -22 -6 -31 10 -52 31 -39 74
-34 98 12 12 23 1 58 -23 74 -14 10 -48 10 -63 0z"/>
<path d="M1710 1319 c-16 -30 -8 -62 19 -75 52 -26 104 34 66 76 -24 27 -71
26 -85 -1z"/>
<path d="M1105 1322 c-14 -10 -13 -44 2 -49 15 -5 21 8 14 34 -3 13 -10 19
-16 15z"/>
<path d="M789 1229 c-27 -27 -22 -70 10 -86 45 -22 93 29 67 71 -20 32 -53 39
-77 15z"/>
<path d="M965 1240 c-53 -21 -58 -82 -8 -101 58 -22 99 51 51 92 -11 11 -21
19 -22 18 -1 0 -10 -4 -21 -9z"/>
<path d="M1638 1206 c-21 -15 -24 -66 -6 -84 7 -7 27 -12 45 -12 26 0 36 6 45
26 25 53 -38 106 -84 70z"/>
<path d="M1806 1194 c-21 -21 -20 -73 2 -90 46 -36 99 0 93 63 -2 20 -31 43
-56 43 -13 0 -31 -7 -39 -16z"/>
<path d="M857 1102 c-35 -39 -14 -92 38 -99 33 -5 68 34 60 67 -12 49 -67 66
-98 32z"/>
<path d="M1390 1058 c-13 -18 -57 -64 -97 -101 -79 -75 -118 -129 -109 -152 8
-22 34 -18 41 6 6 16 12 19 33 15 25 -6 26 -5 8 8 -24 20 -11 39 22 31 23 -6
24 -4 12 10 -19 23 1 41 29 26 12 -7 21 -8 21 -2 0 5 -8 12 -17 15 -14 6 -14
9 6 22 17 13 25 13 36 4 10 -8 15 -9 15 -2 0 6 -5 14 -10 17 -20 12 10 36 30
25 25 -13 53 -13 45 1 -4 6 -13 8 -21 5 -19 -7 -31 23 -14 34 7 5 21 7 31 5
10 -2 21 0 24 6 4 5 -3 9 -15 9 -16 0 -21 5 -18 22 5 35 -25 33 -52 -4z"/>
<path d="M1712 1058 c-16 -16 -15 -63 2 -77 21 -18 66 -9 82 14 11 16 11 25 1
45 -14 28 -64 39 -85 18z"/>
<path d="M1220 524 c-35 -24 -78 -47 -97 -50 -36 -7 -48 -18 -39 -39 4 -11 13
-11 55 0 50 13 51 13 51 -8 1 -20 2 -20 11 -4 5 9 7 21 4 27 -3 5 4 14 15 20
18 10 20 8 20 -17 1 -24 2 -25 11 -10 5 9 7 22 4 28 -8 12 23 49 41 49 18 0
37 -37 24 -45 -13 -8 -13 -25 0 -25 5 0 12 11 16 24 5 22 9 24 30 14 27 -13
32 -36 9 -44 -8 -4 -12 -10 -9 -15 8 -13 24 -1 34 27 5 13 15 22 22 20 7 -3
26 -7 43 -11 l30 -7 -25 -19 c-17 -13 -20 -19 -10 -19 9 0 22 9 30 20 8 11 24
20 36 20 23 0 37 20 26 36 -4 5 -16 10 -27 9 -19 0 -79 9 -120 19 -11 3 -43
14 -71 25 l-50 20 -64 -45z"/>
</g>
</svg>
